# xmcd CD database file
#
# Track frame offsets:
#	150
#	15222
#	31787
#	47388
#	62102
#	78275
#	90664
#	103350
#	113948
#	129859
#	148633
#	164921
#	176852
#	193786
#	210504
#	225717
#	240552
#	256627
#	271454
#	284480
#	302693
#	319760
#
# Disc length: 4438 seconds
#
# Revision: 0
# Processed by: cddbd v1.5.2PL0 Copyright (c) Steve Scherf et al.
# Submitted via: CDex 1.70beta2
#
DISCID=2f115416
DTITLE=Various Artist - CDX  531
DYEAR=2011
DGENRE=Country
TTITLE0=Josh Thompson - Change
TTITLE1=Luke Bryan - I Don't Want This Night To End
TTITLE2=Ashley Gearing - Me, My Heart, and I 
TTITLE3=The Janedear Girls - Merry Go Round
TTITLE4=Kip Moore - Somethin' 'Bout A Truck
TTITLE5=Chris Young - You
TTITLE6=Andy Gibson - Wanna Make You Love Me
TTITLE7=y Powers and Merle Haggard - Tom Sawyer and Huckleberry Finn
TTITLE8=Wayne Warner - Drunk Again
TTITLE9=Guy Penrod - More Power To Ya
TTITLE10=Buddy Jewell - Jesus, Elvis, And Me
TTITLE11=John Maines Jr. - Bottle In My Hand
TTITLE12=Sarah Pierce - Butterfly Tattoo 
TTITLE13=Madonna Nash - Dirty Little Secret
TTITLE14=Coy Taylor - Fall For You
TTITLE15=Chris Weaver Band - Go Easy On Me
TTITLE16=The Taylor Made Band - Halftime
TTITLE17=James Meadows - Like a Radio
TTITLE18=Kelly McGrath - One Foot In Front Of The Other
TTITLE19=Sarah Turner - Stupid Me
TTITLE20=Sean Patrick McGraw - What I'd Do
TTITLE21=Robbie Carrico - Talkin' Dirty
EXTD=YEAR: 2011
EXTT0=
EXTT1=
EXTT2=
EXTT3=
EXTT4=
EXTT5=
EXTT6=
EXTT7=
EXTT8=
EXTT9=
EXTT10=
EXTT11=
EXTT12=
EXTT13=
EXTT14=
EXTT15=
EXTT16=
EXTT17=
EXTT18=
EXTT19=
EXTT20=
EXTT21=
PLAYORDER=
